<svg xmlns="http://www.w3.org/2000/svg" xmlns:xlink="http://www.w3.org/1999/xlink" width="32" height="32" viewBox="0 0 32 32"><defs><clipPath id="b"><rect width="32" height="32"/></clipPath></defs><g id="a" clip-path="url(#b)"><rect width="32" height="32" fill="#fff"/><g transform="translate(4.501 10.602)"><path d="M106.5,17.88a16.641,16.641,0,0,0,4.086,3.167,13.446,13.446,0,0,0,7.656,1.863,18.065,18.065,0,0,0,4.471-.685,18.219,18.219,0,0,0,3.4-1.526,15.281,15.281,0,0,0,3.581-3.1" transform="translate(-106.501 -17.602)" fill="none" stroke="#707070" stroke-width="1"/><path d="M16,8.729V4.28" transform="translate(27.499 14.52) rotate(180)" fill="none" stroke="#707070" stroke-width="1"/><path d="M16,8.673v-4.4" transform="translate(12.432 18.074) rotate(-150)" fill="none" stroke="#707070" stroke-width="1"/><path d="M16,8.673v-4.4" transform="translate(38.752 2.074) rotate(150)" fill="none" stroke="#707070" stroke-width="1"/><path d="M16,8.278V4.25" transform="matrix(-0.966, -0.259, 0.259, -0.966, 20.543, 16.894)" fill="none" stroke="#707070" stroke-width="1"/><path d="M16,8.278V4.25" transform="matrix(-0.966, 0.259, -0.259, -0.966, 33.712, 8.612)" fill="none" stroke="#707070" stroke-width="1"/></g></g></svg>