<svg xmlns="http://www.w3.org/2000/svg" xmlns:xlink="http://www.w3.org/1999/xlink" width="32" height="32" viewBox="0 0 32 32"><defs><clipPath id="b"><rect width="32" height="32"/></clipPath></defs><g id="a" clip-path="url(#b)"><rect width="32" height="32" fill="#fff"/><g transform="translate(1.858 1.858)"><g transform="translate(14.142 28.284) rotate(-135)" fill="#fff" stroke="#707070" stroke-linejoin="round" stroke-width="1"><path d="M16.471,0h0A3.529,3.529,0,0,1,20,3.529v0A16.471,16.471,0,0,1,3.529,20h0A3.529,3.529,0,0,1,0,16.471v0A16.471,16.471,0,0,1,16.471,0Z" stroke="none"/><path d="M16.22.5h0A3.28,3.28,0,0,1,19.5,3.78v0A15.72,15.72,0,0,1,3.78,19.5h0A3.28,3.28,0,0,1,.5,16.22v0A15.72,15.72,0,0,1,16.22.5Z" fill="none"/></g><g transform="translate(8.142 9.142)" fill="#fff"><path d="M 6.000300407409668 9.499899864196777 C 3.519376039505005 9.499899864196777 1.5008864402771 7.482386112213135 1.499901056289673 5.002187728881836 C 1.923071265220642 5.31940221786499 2.445383310317993 5.500400066375732 2.999700307846069 5.500400066375732 C 4.378590106964111 5.500400066375732 5.500400066375732 4.378590106964111 5.500400066375732 2.999699831008911 C 5.500400066375732 2.08310079574585 5.004277229309082 1.280100226402283 4.266432285308838 0.8449581265449524 C 4.810063362121582 0.6175945997238159 5.395846366882324 0.4999999403953552 6.000300407409668 0.4999999403953552 C 8.481329917907715 0.4999999403953552 10.49980068206787 2.518869876861572 10.49980068206787 5.000400066375732 C 10.49980068206787 7.481430053710938 8.481329917907715 9.499899864196777 6.000300407409668 9.499899864196777 Z" stroke="none"/><path d="M 6.000300407409668 8.999899864196777 C 8.205630302429199 8.999899864196777 9.999800682067871 7.205729961395264 9.999800682067871 5.000400066375732 C 9.999800682067871 2.794569969177246 8.205630302429199 0.9999999403953552 6.000300407409668 0.9999999403953552 C 5.759243965148926 0.9999999403953552 5.521535396575928 1.021031260490417 5.289069652557373 1.062463164329529 C 5.732620239257813 1.585496544837952 6.000400066375732 2.261897087097168 6.000400066375732 2.999699831008911 C 6.000400066375732 4.654289722442627 4.654290199279785 6.000400066375732 2.999700307846069 6.000400066375732 C 2.686183452606201 6.000400066375732 2.38122296333313 5.952156543731689 2.093201637268066 5.861281871795654 C 2.48812460899353 7.654253005981445 4.089990139007568 8.999899864196777 6.000300407409668 8.999899864196777 M 6.000300407409668 9.999899864196777 C 3.243070363998413 9.999899864196777 0.9999002814292908 7.757130146026611 0.9999002814292908 5.000400066375732 C 0.9999002814292908 4.583549976348877 1.051350235939026 4.169029712677002 1.152830243110657 3.768359899520874 C 1.464370250701904 4.516739845275879 2.188560247421265 5.000400066375732 2.999700307846069 5.000400066375732 C 4.102890491485596 5.000400066375732 5.000400066375732 4.102890014648438 5.000400066375732 2.999699831008911 C 5.000400066375732 1.897009968757629 4.102890491485596 0.9998999238014221 2.999700307846069 0.9998999238014221 C 3.871190309524536 0.3451399207115173 4.908980369567871 -6.790160966829717e-08 6.000300407409668 -6.790160966829717e-08 C 8.757030487060547 -6.790160966829717e-08 10.99980068206787 2.243170022964478 10.99980068206787 5.000400066375732 C 10.99980068206787 7.757130146026611 8.757030487060547 9.999899864196777 6.000300407409668 9.999899864196777 Z" stroke="none" fill="#707070"/></g><path d="M16,8.891V4.29" transform="translate(-1.858 -2.131)" fill="none" stroke="#707070" stroke-width="1"/><path d="M16,8.278V4.25" transform="matrix(0.966, -0.259, 0.259, 0.966, -7.724, 3.81)" fill="none" stroke="#707070" stroke-width="1"/><path d="M16,8.275V4.25" transform="matrix(0.966, 0.259, -0.259, 0.966, 5.283, -4.47)" fill="none" stroke="#707070" stroke-width="1"/><path d="M16,8.169V4.243" transform="translate(-12.386 11.307) rotate(-30)" fill="none" stroke="#707070" stroke-width="1"/><path d="M16,8.195V4.245" transform="translate(13.443 -4.715) rotate(30)" fill="none" stroke="#707070" stroke-width="1"/></g></g></svg>